# xmcd
#
# Track frame offsets: 
#        150
#        21679
#        52849
#        73836
#        86139
#        135972
#        154828
#        169840
#        198620
#        217809
#
# Disc length: 3319 seconds
#
# Revision: 0
# Processed by: cddbd v1.5.2PL0 Copyright (c) Steve Scherf et al.
# Submitted via: ExactAudioCopy v0.99pb4
#
DISCID=8c0cf50a
DTITLE=Mick Abrahams and The This Was Band - This Is 
DYEAR=1998
DGENRE=Rock
TTITLE0=My Sunday Feeling
TTITLE1=It's Breaking Me Up
TTITLE2=Serenade To A Cuckoo
TTITLE3=Move On Alone
TTITLE4=Cat's Squirrel
TTITLE5=SomeDay The Sun Won't Shine For You
TTITLE6=A Song For Jeffrey
TTITLE7=Dharma For One
TTITLE8=Beggars Farm
TTITLE9=Rock Me Baby
EXTD=
EXTT0=
EXTT1=
EXTT2=
EXTT3=
EXTT4=
EXTT5=
EXTT6=
EXTT7=
EXTT8=
EXTT9=
PLAYORDER=
